<svg width="28" height="28" viewBox="0 0 28 28" fill="none" xmlns="http://www.w3.org/2000/svg">
<path d="M20.5798 17.1763C20.5798 18.359 20.9159 18.8307 21.7948 18.8307C23.7537 18.8307 25.001 16.3315 25.001 12.1751C25.001 5.82211 20.3773 2.78081 14.6046 2.78081C8.66605 2.78081 3.26464 6.76829 3.26464 14.304C3.26464 21.5017 7.98964 25.4216 15.2459 25.4216C17.7096 25.4216 19.3634 25.1513 21.8932 24.3065L22.4361 26.5691C19.9385 27.3816 17.2695 27.6167 15.2121 27.6167C5.69464 27.6167 0.596985 22.3789 0.596985 14.3026C0.596985 6.15863 6.50464 0.616699 14.6384 0.616699C23.1096 0.616699 27.597 5.68553 27.597 11.9033C27.597 17.1749 25.9446 21.1962 20.7471 21.1962C18.3832 21.1962 16.8321 20.25 16.6296 18.1535C16.0221 20.4851 14.4021 21.1962 12.207 21.1962C9.27074 21.1962 6.80699 18.9307 6.80699 14.3701C6.80699 9.7744 8.96839 6.93585 12.8496 6.93585C14.9084 6.93585 16.1909 7.74686 16.7618 9.03097L17.742 7.23998H20.577V17.1763H20.5798ZM16.43 12.7157C16.43 10.8586 15.0448 10.0799 13.8973 10.0799C12.6485 10.0799 11.2662 11.0923 11.2662 14.0674C11.2662 16.4329 12.3125 17.7508 13.8973 17.7508C15.011 17.7508 16.43 17.0411 16.43 15.0812V12.7157Z" fill="black"/>
</svg>
