<svg width="26" height="24" viewBox="0 0 26 24" fill="none" xmlns="http://www.w3.org/2000/svg">
<path d="M25.2664 5.30861C24.8704 4.39935 24.2994 3.57538 23.5855 2.88283C22.871 2.18822 22.0286 1.63622 21.104 1.25686C20.1454 0.861914 19.1171 0.65976 18.079 0.66213C16.6227 0.66213 15.2017 1.05764 13.9669 1.80471C13.6715 1.98342 13.3909 2.17971 13.125 2.39358C12.8591 2.17971 12.5785 1.98342 12.2831 1.80471C11.0483 1.05764 9.62734 0.66213 8.17097 0.66213C7.12226 0.66213 6.10605 0.861349 5.14597 1.25686C4.21838 1.63772 3.38237 2.18557 2.66453 2.88283C1.94962 3.5746 1.37854 4.39876 0.983643 5.30861C0.573022 6.2549 0.363281 7.25979 0.363281 8.29397C0.363281 9.26955 0.56416 10.2862 0.962964 11.3203C1.29678 12.1846 1.77534 13.0811 2.38684 13.9863C3.35579 15.419 4.68809 16.9131 6.34238 18.4278C9.08379 20.9385 11.7986 22.6729 11.9138 22.7432L12.6139 23.1885C12.9241 23.3848 13.3229 23.3848 13.6331 23.1885L14.3332 22.7432C14.4484 22.6699 17.1603 20.9385 19.9047 18.4278C21.559 16.9131 22.8913 15.419 23.8602 13.9863C24.4717 13.0811 24.9532 12.1846 25.2841 11.3203C25.6829 10.2862 25.8838 9.26955 25.8838 8.29397C25.8867 7.25979 25.677 6.2549 25.2664 5.30861Z" fill="black"/>
</svg>
