<svg width="23" height="24" viewBox="0 0 23 24" fill="none" xmlns="http://www.w3.org/2000/svg">
<path d="M20.3229 0.75H2.67708C1.29062 0.75 0.15625 1.875 0.15625 3.25V20.75C0.15625 22.125 1.29062 23.25 2.67708 23.25H20.3229C21.7094 23.25 22.8438 22.125 22.8438 20.75V3.25C22.8438 1.875 21.7094 0.75 20.3229 0.75ZM11.5 4.5C13.9326 4.5 15.9115 6.4625 15.9115 8.875C15.9115 11.2875 13.9326 13.25 11.5 13.25C9.0674 13.25 7.08854 11.2875 7.08854 8.875C7.08854 6.4625 9.0674 4.5 11.5 4.5ZM20.3229 20.75H2.67708V20.4625C2.67708 19.6875 3.03 18.9625 3.635 18.4875C5.79031 16.775 8.52542 15.75 11.5 15.75C14.4746 15.75 17.2097 16.775 19.365 18.4875C19.97 18.9625 20.3229 19.7 20.3229 20.4625V20.75Z" fill="black"/>
</svg>
