<svg width="26" height="25" viewBox="0 0 26 25" fill="none" xmlns="http://www.w3.org/2000/svg">
<path d="M7.99968 0.130005L3.32101 8.25H1.53122C1.33749 8.25022 1.14641 8.29467 0.972796 8.37992C0.799181 8.46517 0.647692 8.58892 0.530074 8.74159C0.412456 8.89426 0.331867 9.07174 0.294556 9.26027C0.257244 9.4488 0.264212 9.64332 0.314919 9.82875L3.84283 22.6575C3.98906 23.1863 4.30623 23.653 4.74566 23.9858C5.18509 24.3186 5.7225 24.4993 6.27543 24.5H19.4758C20.6076 24.5 21.6084 23.7438 21.9084 22.6563L25.4363 9.8275C25.4876 9.64201 25.495 9.44725 25.4578 9.25847C25.4206 9.06968 25.3399 8.89198 25.2221 8.73924C25.1042 8.5865 24.9523 8.46286 24.7782 8.37799C24.6042 8.29312 24.4127 8.24932 24.2187 8.25H22.4289L17.7503 0.130005L15.5622 1.37L19.5262 8.25H6.22375L10.1878 1.37L7.99968 0.130005ZM15.3958 13.25H17.9166V19.5H15.3958V13.25ZM7.8333 13.25H10.3541V19.5H7.8333V13.25Z" fill="black"/>
</svg>
