<svg width="41" height="53" viewBox="0 0 41 53" fill="none" xmlns="http://www.w3.org/2000/svg">
<path d="M20.0123 24.1728C21.165 22.8256 22.5355 21.6729 24.0773 20.7773C22.4783 18.6449 21.6018 16.0529 21.5879 13.3733C21.0197 13.7398 20.4854 14.1642 20.0047 14.6564C19.5206 14.1637 18.9839 13.7388 18.4133 13.3718C18.3999 16.0437 17.5311 18.6215 15.9474 20.7461C17.4656 21.6417 18.8362 22.7863 20.0124 24.1727L20.0123 24.1728Z" fill="#D98B52"/>
<path d="M16.7568 30.4109C17.2242 28.6122 18.0027 26.93 19.0306 25.4346C17.769 23.8772 16.2273 22.6232 14.4983 21.7358C14.4672 21.72 14.4361 21.6966 14.4051 21.6813C12.4429 20.6925 10.2465 20.1548 7.95688 20.1548C6.75689 20.1548 5.57075 20.3159 4.41904 20.6141C4.41282 20.7517 4.39801 20.8875 4.39801 21.027C4.39801 22.1797 4.55189 23.2875 4.81951 24.3517C5.33802 24.2781 5.86562 24.2279 6.40749 24.2279C10.815 24.2279 14.7477 26.6733 16.7568 30.4109L16.7568 30.4109Z" fill="#D98B52"/>
<path d="M16.8583 13.3089C16.8583 13.1297 16.8507 12.9428 16.8426 12.7636C16.8388 12.6972 16.8583 12.637 16.8708 12.5749C15.8132 12.1529 14.6759 11.9225 13.5016 11.9225C13.4171 11.9225 13.3349 11.9331 13.2507 11.9354C13.2665 12.2031 13.2761 12.4716 13.2761 12.7402C13.2761 14.9672 12.6921 17.1167 11.5863 19.0092C12.6066 19.2505 13.5954 19.5932 14.5378 20.0214C16.0331 18.106 16.8584 15.7538 16.8584 13.3089L16.8583 13.3089Z" fill="#D98B52"/>
<path d="M32.0432 18.5965C33.1581 18.5965 34.2687 18.7193 35.3545 18.9549C34.5483 15.516 31.7918 12.8149 28.3171 12.1063C28.3052 12.3184 28.2817 12.5292 28.2817 12.7404C28.2817 14.8899 28.9049 16.9536 30.0805 18.7366C30.7271 18.651 31.3736 18.5966 32.0432 18.5966L32.0432 18.5965Z" fill="#D98B52"/>
<path d="M28.4305 19.0332C27.3093 17.1254 26.7249 14.9759 26.7249 12.7408C26.7249 12.4717 26.7345 12.2031 26.7503 11.936C26.6662 11.9336 26.584 11.9231 26.4989 11.9231C25.3247 11.9231 24.1869 12.1534 23.1298 12.5754C23.1422 12.6375 23.1613 12.6978 23.158 12.7637C23.1503 12.9429 23.1422 13.1298 23.1422 13.309C23.1422 15.762 23.9756 18.1294 25.4786 20.0453C26.4215 19.6095 27.4027 19.2744 28.4306 19.0331L28.4305 19.0332Z" fill="#D98B52"/>
<path d="M4.64509 18.9549C5.73086 18.7193 6.84146 18.5965 7.95635 18.5965C8.62589 18.5965 9.28008 18.6433 9.92665 18.7212C11.0946 16.9458 11.7178 14.89 11.7178 12.7404C11.7178 12.5291 11.6944 12.3184 11.6825 12.1062C8.20776 12.8154 5.45118 15.5159 4.64508 18.9548L4.64509 18.9549Z" fill="#D98B52"/>
<path d="M32.0432 20.1539C24.1781 20.1539 17.7771 26.5552 17.7771 34.42C17.7771 36.1097 18.0729 37.7686 18.6493 39.3417C18.6698 39.3948 18.6679 39.4488 18.676 39.5028C19.2179 39.8 19.5759 39.9778 19.6619 40.0194C19.7709 40.0739 19.888 40.0973 20.0046 40.0973C20.1135 40.0973 20.2306 40.0739 20.3396 40.0194C20.4672 39.9573 21.1907 39.5988 22.2506 38.9766C21.9883 37.9926 21.8507 36.9853 21.8507 35.9702C21.8507 29.499 27.1228 24.227 33.5939 24.227C34.1353 24.227 34.6634 24.2772 35.1818 24.3508C35.449 23.2865 35.6033 22.1788 35.6033 21.0261C35.6033 20.887 35.5885 20.7513 35.5823 20.6137C34.4282 20.3145 33.2373 20.1534 32.0435 20.1534L32.0432 20.1539Z" fill="#D98B52"/>
<path d="M23.4072 35.9713C23.4072 36.6948 23.4832 37.4183 23.6376 38.1251C27.195 35.8398 32.6085 31.5871 34.7161 25.8556C34.3481 25.8135 33.9739 25.7849 33.5931 25.7849C27.9782 25.7849 23.4072 30.3559 23.4072 35.9707L23.4072 35.9713Z" fill="#D98B52"/>
<path d="M16.7225 38.3532C16.3928 37.0729 16.2188 35.754 16.2188 34.4216C16.2188 34.0866 16.2499 33.7597 16.2733 33.4247C15.113 28.9234 11.0633 25.7852 6.4068 25.7852C6.02592 25.7852 5.65173 25.8143 5.28375 25.8559C7.46435 31.7856 13.1823 36.1305 16.7226 38.353L16.7225 38.3532Z" fill="#D98B52"/>
<path d="M34.824 2.53201C32.4958 2.53201 30.6033 4.42449 30.6033 6.74517C30.6033 7.78888 30.9846 8.74653 31.6155 9.47874L30.3228 11.083C30.8289 11.2775 31.3116 11.5035 31.7713 11.7759L32.8303 10.4598C33.422 10.779 34.0996 10.9659 34.8241 10.9659C37.1448 10.9659 39.0373 9.0734 39.0373 6.74514C39.0368 4.42447 37.1448 2.53198 34.8241 2.53198L34.824 2.53201Z" fill="#D98B52"/>
<path d="M6.99155 41.2968C7.13157 41.4134 7.30314 41.4683 7.47422 41.4683C7.70791 41.4683 7.93347 41.367 8.08162 41.1801L11.7184 36.6713C11.3289 36.3521 10.9318 36.0094 10.5347 35.6591L6.87451 40.199C6.6021 40.5336 6.65659 41.0244 6.99159 41.2968L6.99155 41.2968Z" fill="#D98B52"/>
<path d="M32.5265 41.4693C32.698 41.4693 32.8691 41.4148 33.0092 41.2977C33.3442 41.0253 33.3986 40.5345 33.1258 40.1995L29.4733 35.6672C29.0838 36.0175 28.6867 36.3525 28.2896 36.6793L31.9187 41.1806C32.0673 41.3679 32.2933 41.4693 32.5265 41.4693L32.5265 41.4693Z" fill="#D98B52"/>
<path d="M7.17019 10.4597L8.22919 11.7758C8.68844 11.5034 9.17924 11.2774 9.6777 11.0828L8.38505 9.4786C9.00823 8.74646 9.39722 7.78883 9.39722 6.74502C9.39722 4.42434 7.50474 2.53186 5.17648 2.53186C2.8558 2.53186 0.963318 4.42434 0.963318 6.74502C0.963318 9.07328 2.8558 10.9658 5.17648 10.9658C5.90097 10.9658 6.57813 10.7789 7.17026 10.4597L7.17019 10.4597Z" fill="#D98B52"/>
<path d="M3.25 42.21C3.33 42.2167 3.41667 42.2233 3.51 42.23C3.61 42.23 3.71 42.2333 3.81 42.24C3.91667 42.24 4.01667 42.24 4.11 42.24C4.21 42.24 4.3 42.24 4.38 42.24C4.48667 42.24 4.61 42.24 4.75 42.24C4.89 42.2333 5.03333 42.23 5.18 42.23C5.33333 42.2233 5.47 42.2167 5.59 42.21C5.59 42.2633 5.58667 42.33 5.58 42.41C5.57333 42.4833 5.56 42.56 5.54 42.64C5.30667 42.6533 5.13667 42.6833 5.03 42.73C4.93 42.7767 4.88667 42.87 4.9 43.01C4.91333 43.15 4.97 43.37 5.07 43.67C5.20333 44.0767 5.34333 44.5167 5.49 44.99C5.64333 45.4633 5.79333 45.94 5.94 46.42C6.08667 46.8933 6.22 47.3367 6.34 47.75H6.12L8 42.21C8.05333 42.19 8.11333 42.1767 8.18 42.17C8.24667 42.1633 8.33333 42.16 8.44 42.16C8.66 42.7333 8.88667 43.34 9.12 43.98C9.35333 44.62 9.58333 45.26 9.81 45.9C10.0433 46.5333 10.26 47.14 10.46 47.72H10.26L11.41 44.06C11.5633 43.56 11.6033 43.21 11.53 43.01C11.4567 42.8033 11.2567 42.68 10.93 42.64C10.9033 42.5733 10.8833 42.5 10.87 42.42C10.8633 42.3333 10.86 42.2633 10.86 42.21C11 42.2167 11.15 42.2233 11.31 42.23C11.4767 42.2367 11.65 42.24 11.83 42.24C11.9833 42.24 12.1467 42.2367 12.32 42.23C12.4933 42.2233 12.6467 42.2167 12.78 42.21C12.78 42.2767 12.7733 42.3467 12.76 42.42C12.7533 42.4933 12.7367 42.5667 12.71 42.64C12.5967 42.6667 12.4967 42.7233 12.41 42.81C12.33 42.8967 12.25 43.04 12.17 43.24C12.09 43.44 11.99 43.7233 11.87 44.09L10.31 49.03C10.2567 49.05 10.1933 49.0633 10.12 49.07C10.0533 49.0833 9.98333 49.09 9.91 49.09C9.71 48.5167 9.49667 47.92 9.27 47.3C9.04333 46.68 8.81333 46.06 8.58 45.44C8.35333 44.8133 8.13 44.2167 7.91 43.65H8L6.2 49.03C6.16667 49.0433 6.12333 49.0533 6.07 49.06C6.02333 49.0733 5.97333 49.08 5.92 49.08C5.87333 49.0867 5.82333 49.09 5.77 49.09C5.50333 48.2033 5.23 47.3167 4.95 46.43C4.67 45.5433 4.38333 44.6633 4.09 43.79C3.97 43.43 3.87333 43.1733 3.8 43.02C3.72667 42.8667 3.65333 42.77 3.58 42.73C3.51333 42.6833 3.42 42.6533 3.3 42.64C3.28 42.5733 3.26667 42.5033 3.26 42.43C3.25333 42.35 3.25 42.2767 3.25 42.21ZM14.7485 49.09C14.2752 49.09 13.8818 48.9833 13.5685 48.77C13.2552 48.5567 13.0185 48.27 12.8585 47.91C12.7052 47.5433 12.6285 47.1433 12.6285 46.71C12.6285 46.2833 12.7118 45.89 12.8785 45.53C13.0452 45.17 13.2818 44.88 13.5885 44.66C13.9018 44.44 14.2718 44.33 14.6985 44.33C15.1318 44.33 15.4785 44.4233 15.7385 44.61C16.0052 44.7967 16.2018 45.0467 16.3285 45.36C16.4618 45.6733 16.5418 46.02 16.5685 46.4C16.5418 46.5333 16.4918 46.6467 16.4185 46.74C16.3052 46.74 16.1352 46.74 15.9085 46.74C15.6818 46.74 15.4252 46.7433 15.1385 46.75C14.8518 46.75 14.5585 46.7567 14.2585 46.77C13.9585 46.7767 13.6752 46.7867 13.4085 46.8V46.29H15.5285C15.5285 45.85 15.4485 45.4933 15.2885 45.22C15.1285 44.9467 14.9018 44.81 14.6085 44.81C14.4485 44.81 14.2918 44.86 14.1385 44.96C13.9852 45.0533 13.8585 45.2233 13.7585 45.47C13.6585 45.71 13.6085 46.0533 13.6085 46.5C13.6085 46.8267 13.6485 47.1467 13.7285 47.46C13.8152 47.7667 13.9618 48.0233 14.1685 48.23C14.3818 48.43 14.6818 48.53 15.0685 48.53C15.2885 48.53 15.5052 48.48 15.7185 48.38C15.9318 48.28 16.1218 48.1367 16.2885 47.95C16.3418 47.9767 16.3918 48.0233 16.4385 48.09C16.4918 48.15 16.5218 48.2067 16.5285 48.26C16.3018 48.56 16.0385 48.7733 15.7385 48.9C15.4452 49.0267 15.1152 49.09 14.7485 49.09ZM20.3948 49.09C20.3215 49.0567 20.2615 48.9967 20.2148 48.91C20.1748 48.8233 20.1548 48.6867 20.1548 48.5C20.1548 48.44 20.1582 48.37 20.1648 48.29C20.1715 48.2033 20.1848 48.1267 20.2048 48.06H20.2248C20.2048 48.1667 20.1582 48.2833 20.0848 48.41C20.0182 48.53 19.9282 48.6367 19.8148 48.73C19.7015 48.83 19.5582 48.9133 19.3848 48.98C19.2115 49.04 19.0015 49.07 18.7548 49.07C18.3348 49.07 18.0148 48.9767 17.7948 48.79C17.5748 48.5967 17.4648 48.3367 17.4648 48.01C17.4648 47.75 17.5248 47.53 17.6448 47.35C17.7715 47.1633 17.9315 47.01 18.1248 46.89C18.3248 46.7633 18.5382 46.6633 18.7648 46.59C18.9982 46.5167 19.2248 46.46 19.4448 46.42C19.6648 46.38 19.8582 46.3467 20.0248 46.32C20.0248 46.0467 20.0182 45.8333 20.0048 45.68C19.9982 45.5267 19.9782 45.4067 19.9448 45.32C19.9182 45.2267 19.8748 45.1467 19.8148 45.08C19.7348 44.98 19.6415 44.9067 19.5348 44.86C19.4348 44.8067 19.3215 44.78 19.1948 44.78C18.9748 44.78 18.8015 44.85 18.6748 44.99C18.5482 45.1233 18.4582 45.28 18.4048 45.46C18.3515 45.64 18.3215 45.8 18.3148 45.94C18.2415 45.94 18.1482 45.9367 18.0348 45.93C17.9282 45.9167 17.8482 45.8967 17.7948 45.87C17.8082 45.7033 17.8115 45.5167 17.8048 45.31C17.7982 45.1033 17.7782 44.9267 17.7448 44.78C18.0182 44.64 18.3048 44.53 18.6048 44.45C18.9115 44.37 19.1915 44.33 19.4448 44.33C19.6915 44.33 19.9015 44.3667 20.0748 44.44C20.2548 44.5067 20.3982 44.5967 20.5048 44.71C20.6782 44.8767 20.7915 45.0967 20.8448 45.37C20.8982 45.6367 20.9248 45.9933 20.9248 46.44V47.54C20.9248 47.7267 20.9382 47.8767 20.9648 47.99C20.9982 48.0967 21.0582 48.1767 21.1448 48.23C21.2315 48.2767 21.3648 48.3067 21.5448 48.32C21.5448 48.3867 21.5415 48.4633 21.5348 48.55C21.5282 48.63 21.5115 48.7067 21.4848 48.78C21.3182 48.7867 21.1315 48.82 20.9248 48.88C20.7248 48.9333 20.5482 49.0033 20.3948 49.09ZM19.0348 48.52C19.1815 48.52 19.3315 48.4733 19.4848 48.38C19.6382 48.28 19.7648 48.1267 19.8648 47.92C19.9715 47.7133 20.0248 47.4433 20.0248 47.11V46.73C19.8582 46.75 19.6815 46.78 19.4948 46.82C19.3082 46.8533 19.1348 46.9067 18.9748 46.98C18.8148 47.0533 18.6848 47.1567 18.5848 47.29C18.4848 47.4167 18.4348 47.59 18.4348 47.81C18.4348 48.0567 18.4948 48.2367 18.6148 48.35C18.7348 48.4633 18.8748 48.52 19.0348 48.52ZM23.8788 49.09C23.4855 49.09 23.1922 48.99 22.9988 48.79C22.8122 48.5833 22.7188 48.2533 22.7188 47.8V45.09C22.6188 45.0567 22.5155 45.03 22.4088 45.01C22.3022 44.9833 22.1655 44.9667 21.9988 44.96C21.9988 44.8733 22.0055 44.8 22.0188 44.74C22.0322 44.6733 22.0555 44.6 22.0888 44.52H22.7188V43.2C22.8522 43.1667 22.9822 43.1133 23.1088 43.04C23.2422 42.9667 23.3588 42.8867 23.4588 42.8C23.5255 42.8267 23.5688 42.8667 23.5888 42.92C23.6088 42.9733 23.6188 43.1067 23.6188 43.32V44.52H24.9188C24.9188 44.5867 24.9122 44.66 24.8988 44.74C24.8855 44.8133 24.8622 44.8867 24.8288 44.96C24.5888 44.9667 24.3688 44.9833 24.1688 45.01C23.9688 45.03 23.7855 45.0567 23.6188 45.09V47.59C23.6188 47.81 23.6422 47.9933 23.6888 48.14C23.7355 48.28 23.8022 48.3833 23.8888 48.45C23.9755 48.5167 24.0788 48.55 24.1988 48.55C24.3388 48.55 24.4588 48.53 24.5588 48.49C24.6655 48.45 24.7655 48.39 24.8588 48.31C24.9455 48.41 24.9955 48.52 25.0088 48.64C24.9022 48.7667 24.7388 48.8733 24.5188 48.96C24.3055 49.0467 24.0922 49.09 23.8788 49.09ZM30.2647 47.73C30.2647 48.0767 30.3114 48.31 30.4047 48.43C30.5047 48.5433 30.6547 48.6 30.8547 48.6C30.8747 48.66 30.888 48.7233 30.8947 48.79C30.9014 48.8567 30.9047 48.9367 30.9047 49.03C30.758 49.0167 30.5914 49.0067 30.4047 49C30.218 49 30.0214 49 29.8147 49C29.6814 49 29.5414 49 29.3947 49C29.248 49.0067 29.108 49.01 28.9747 49.01C28.848 49.0167 28.7314 49.0233 28.6247 49.03C28.6247 48.9367 28.628 48.8567 28.6347 48.79C28.6414 48.7167 28.6547 48.6533 28.6747 48.6C28.9147 48.6 29.088 48.54 29.1947 48.42C29.308 48.2933 29.3647 48.0633 29.3647 47.73V46.21C29.3647 45.7367 29.278 45.4167 29.1047 45.25C28.9314 45.0767 28.708 44.99 28.4347 44.99C28.2614 44.99 28.088 45.0467 27.9147 45.16C27.7414 45.2667 27.5947 45.4433 27.4747 45.69C27.3614 45.93 27.3047 46.2533 27.3047 46.66V47.73C27.3047 48.0633 27.3547 48.2933 27.4547 48.42C27.5547 48.54 27.7347 48.6 27.9947 48.6C28.0147 48.66 28.028 48.7233 28.0347 48.79C28.0414 48.8567 28.0447 48.9367 28.0447 49.03C27.9514 49.0233 27.838 49.0167 27.7047 49.01C27.5714 49.01 27.4314 49.0067 27.2847 49C27.138 49 26.9947 49 26.8547 49C26.7214 49 26.5814 49 26.4347 49C26.288 49.0067 26.148 49.01 26.0147 49.01C25.8814 49.0167 25.7647 49.0233 25.6647 49.03C25.6647 48.9367 25.668 48.8567 25.6747 48.79C25.6814 48.7167 25.6947 48.6533 25.7147 48.6C25.9747 48.6 26.1547 48.54 26.2547 48.42C26.3547 48.2933 26.4047 48.0633 26.4047 47.73V45.75L27.3047 44.77C27.3047 44.85 27.3014 44.94 27.2947 45.04C27.288 45.14 27.268 45.2467 27.2347 45.36C27.2547 45.3267 27.2747 45.29 27.2947 45.25C27.3147 45.2033 27.3447 45.1533 27.3847 45.1C27.498 44.9467 27.678 44.79 27.9247 44.63C28.178 44.4633 28.4814 44.38 28.8347 44.38C29.088 44.38 29.3214 44.4333 29.5347 44.54C29.7547 44.64 29.9314 44.81 30.0647 45.05C30.198 45.2833 30.2647 45.6033 30.2647 46.01V47.73ZM26.4047 43.25C26.4047 43.09 26.388 42.96 26.3547 42.86C26.328 42.7533 26.2614 42.6733 26.1547 42.62C26.048 42.5667 25.8814 42.54 25.6547 42.54C25.6547 42.4667 25.6614 42.4 25.6747 42.34C25.688 42.28 25.7114 42.2233 25.7447 42.17C25.8447 42.17 25.9847 42.1533 26.1647 42.12C26.3514 42.0867 26.5314 42.0433 26.7047 41.99C26.878 41.9367 27.0047 41.8833 27.0847 41.83C27.1447 41.85 27.1947 41.89 27.2347 41.95C27.2814 42.01 27.3047 42.1033 27.3047 42.23V43.62H26.4047V43.25ZM26.4047 43.25H27.3047V44.77L26.4047 45.9V43.25ZM33.7817 49.09C33.3084 49.09 32.9151 48.9833 32.6017 48.77C32.2884 48.5567 32.0517 48.27 31.8917 47.91C31.7384 47.5433 31.6617 47.1433 31.6617 46.71C31.6617 46.2833 31.7451 45.89 31.9117 45.53C32.0784 45.17 32.3151 44.88 32.6217 44.66C32.9351 44.44 33.3051 44.33 33.7317 44.33C34.1651 44.33 34.5117 44.4233 34.7717 44.61C35.0384 44.7967 35.2351 45.0467 35.3617 45.36C35.4951 45.6733 35.5751 46.02 35.6017 46.4C35.5751 46.5333 35.5251 46.6467 35.4517 46.74C35.3384 46.74 35.1684 46.74 34.9417 46.74C34.7151 46.74 34.4584 46.7433 34.1717 46.75C33.8851 46.75 33.5917 46.7567 33.2917 46.77C32.9917 46.7767 32.7084 46.7867 32.4417 46.8V46.29H34.5617C34.5617 45.85 34.4817 45.4933 34.3217 45.22C34.1617 44.9467 33.9351 44.81 33.6417 44.81C33.4817 44.81 33.3251 44.86 33.1717 44.96C33.0184 45.0533 32.8917 45.2233 32.7917 45.47C32.6917 45.71 32.6417 46.0533 32.6417 46.5C32.6417 46.8267 32.6817 47.1467 32.7617 47.46C32.8484 47.7667 32.9951 48.0233 33.2017 48.23C33.4151 48.43 33.7151 48.53 34.1017 48.53C34.3217 48.53 34.5384 48.48 34.7517 48.38C34.9651 48.28 35.1551 48.1367 35.3217 47.95C35.3751 47.9767 35.4251 48.0233 35.4717 48.09C35.5251 48.15 35.5551 48.2067 35.5617 48.26C35.3351 48.56 35.0717 48.7733 34.7717 48.9C34.4784 49.0267 34.1484 49.09 33.7817 49.09ZM38.008 47.53C38.008 47.8167 38.038 48.0367 38.098 48.19C38.158 48.3367 38.2547 48.44 38.388 48.5C38.5214 48.5533 38.6914 48.5867 38.898 48.6C38.918 48.6533 38.9314 48.7167 38.938 48.79C38.9447 48.8567 38.948 48.9367 38.948 49.03C38.848 49.0233 38.728 49.0167 38.588 49.01C38.4547 49.01 38.3114 49.0067 38.158 49C38.0047 49 37.848 49 37.688 49C37.4547 49 37.208 49 36.948 49C36.6947 49.0067 36.5014 49.0167 36.368 49.03C36.368 48.9367 36.3714 48.8567 36.378 48.79C36.3847 48.7167 36.398 48.6533 36.418 48.6C36.598 48.5867 36.738 48.5567 36.838 48.51C36.938 48.4567 37.008 48.37 37.048 48.25C37.088 48.1233 37.108 47.95 37.108 47.73V46.73H38.008V47.53ZM38.008 46.07V46.86H37.108V45.75L38.008 44.77C38.008 44.9967 37.988 45.2033 37.948 45.39C37.908 45.57 37.8714 45.75 37.838 45.93L38.008 46.07ZM37.788 45.99C37.8614 45.8033 37.918 45.65 37.958 45.53C37.998 45.41 38.0414 45.31 38.088 45.23C38.2347 44.9967 38.408 44.8033 38.608 44.65C38.808 44.4967 39.038 44.42 39.298 44.42C39.5514 44.42 39.7814 44.5 39.988 44.66C39.9747 44.7667 39.9614 44.89 39.948 45.03C39.9347 45.17 39.9247 45.31 39.918 45.45C39.918 45.59 39.918 45.72 39.918 45.84C39.858 45.86 39.7747 45.88 39.668 45.9C39.568 45.92 39.4614 45.93 39.348 45.93C39.3347 45.61 39.2814 45.4 39.188 45.3C39.1014 45.2 38.9914 45.15 38.858 45.15C38.7447 45.15 38.6214 45.2167 38.488 45.35C38.3547 45.4767 38.2414 45.6467 38.148 45.86C38.0547 46.0733 38.008 46.31 38.008 46.57L37.788 45.99ZM37.108 46.86V45.75C37.108 45.59 37.0914 45.46 37.058 45.36C37.0247 45.26 36.9547 45.1833 36.848 45.13C36.7414 45.0767 36.578 45.0467 36.358 45.04C36.358 44.9667 36.3647 44.9 36.378 44.84C36.3914 44.78 36.4147 44.7233 36.448 44.67C36.6547 44.6567 36.8914 44.6167 37.158 44.55C37.4247 44.4833 37.6347 44.41 37.788 44.33C37.848 44.35 37.898 44.3933 37.938 44.46C37.9847 44.52 38.008 44.6233 38.008 44.77L37.108 46.86Z" fill="black"/>
<path d="M5.71 10.09C5.29667 10.09 4.93333 10.0333 4.62 9.92C4.31333 9.8 4 9.64333 3.68 9.45C3.72 9.19667 3.74333 8.94333 3.75 8.69C3.76333 8.43667 3.77 8.21667 3.77 8.03C3.84333 8.01 3.93 7.99667 4.03 7.99C4.13 7.97667 4.22333 7.97 4.31 7.97C4.33 8.31 4.39 8.60333 4.49 8.85C4.59667 9.09 4.76 9.27667 4.98 9.41C5.20667 9.54333 5.49667 9.61 5.85 9.61C6.31 9.61 6.63667 9.51 6.83 9.31C7.03 9.10333 7.13 8.85667 7.13 8.57C7.13 8.27667 7.05 8.03667 6.89 7.85C6.73 7.65667 6.52333 7.49333 6.27 7.36C6.01667 7.22667 5.74667 7.09667 5.46 6.97C5.18 6.84333 4.91333 6.69667 4.66 6.53C4.40667 6.36333 4.2 6.15667 4.04 5.91C3.88 5.65667 3.8 5.33667 3.8 4.95C3.8 4.57667 3.88 4.25667 4.04 3.99C4.20667 3.71667 4.44 3.51 4.74 3.37C5.04 3.22333 5.39667 3.15 5.81 3.15C6.04333 3.15 6.26333 3.17 6.47 3.21C6.68333 3.25 6.87667 3.30333 7.05 3.37C7.22333 3.43667 7.36667 3.51 7.48 3.59C7.48 3.78333 7.48333 4.00667 7.49 4.26C7.49667 4.51333 7.51333 4.73 7.54 4.91C7.46667 4.93667 7.37667 4.96 7.27 4.98C7.17 4.99333 7.07333 5 6.98 5C6.91333 4.61333 6.82667 4.32 6.72 4.12C6.61333 3.92 6.48333 3.78333 6.33 3.71C6.17667 3.63 6 3.59 5.8 3.59C5.44667 3.59 5.17 3.67667 4.97 3.85C4.77 4.02333 4.67 4.26667 4.67 4.58C4.67 4.87333 4.75 5.11667 4.91 5.31C5.07 5.50333 5.27667 5.67 5.53 5.81C5.78333 5.95 6.05 6.08667 6.33 6.22C6.61 6.34667 6.87667 6.49333 7.13 6.66C7.38333 6.82 7.59 7.02 7.75 7.26C7.91 7.5 7.99 7.80333 7.99 8.17C7.99 8.50333 7.91 8.81667 7.75 9.11C7.59 9.40333 7.34333 9.64 7.01 9.82C6.67667 10 6.24333 10.09 5.71 10.09ZM10.6676 10.09C10.5542 9.77 10.4409 9.45667 10.3276 9.15C10.2209 8.83667 10.1076 8.53 9.98758 8.23C9.87424 7.92333 9.75758 7.62 9.63758 7.32C9.52424 7.02 9.40758 6.72 9.28758 6.42C9.21424 6.23333 9.13758 6.1 9.05758 6.02C8.98424 5.94 8.87424 5.87667 8.72758 5.83C8.70091 5.76333 8.68424 5.69 8.67758 5.61C8.67091 5.53 8.66758 5.46 8.66758 5.4C8.80091 5.40667 8.94091 5.41333 9.08758 5.42C9.24091 5.42 9.42758 5.42 9.64758 5.42C9.86758 5.42 10.0642 5.41667 10.2376 5.41C10.4109 5.40333 10.5809 5.39667 10.7476 5.39C10.7476 5.45667 10.7442 5.53333 10.7376 5.62C10.7309 5.70667 10.7176 5.77667 10.6976 5.83C10.5109 5.85 10.3776 5.88333 10.2976 5.93C10.2242 5.97667 10.1876 6.04 10.1876 6.12C10.1942 6.2 10.2209 6.30333 10.2676 6.43C10.4209 6.81667 10.5809 7.24 10.7476 7.7C10.9142 8.16 11.0642 8.58667 11.1976 8.98L11.0676 8.99L12.4476 5.42C12.5009 5.40667 12.5642 5.39667 12.6376 5.39C12.7109 5.38333 12.7809 5.38 12.8476 5.38C13.0676 5.88667 13.3076 6.46 13.5676 7.1C13.8342 7.74 14.0909 8.37667 14.3376 9.01H14.1976L14.8276 7.12C14.9342 6.79333 14.9809 6.54333 14.9676 6.37C14.9609 6.19 14.9109 6.06 14.8176 5.98C14.7242 5.9 14.5942 5.85 14.4276 5.83C14.4009 5.75667 14.3776 5.68333 14.3576 5.61C14.3442 5.53 14.3376 5.45667 14.3376 5.39C14.4642 5.39667 14.6076 5.40333 14.7676 5.41C14.9276 5.41667 15.0809 5.42 15.2276 5.42C15.4076 5.42 15.5709 5.41667 15.7176 5.41C15.8642 5.40333 15.9942 5.39667 16.1076 5.39C16.1076 5.47667 16.1009 5.55333 16.0876 5.62C16.0809 5.68667 16.0609 5.75667 16.0276 5.83C15.9276 5.85667 15.8409 5.90667 15.7676 5.98C15.7009 6.04667 15.6309 6.16667 15.5576 6.34C15.4909 6.51333 15.4009 6.76333 15.2876 7.09L14.2776 10C14.2376 10.02 14.1942 10.0367 14.1476 10.05C14.1009 10.0633 14.0509 10.0733 13.9976 10.08C13.9442 10.0867 13.8842 10.09 13.8176 10.09C13.6642 9.69 13.4976 9.28 13.3176 8.86C13.1442 8.43333 12.9709 8.01333 12.7976 7.6C12.6242 7.18667 12.4542 6.79667 12.2876 6.43L12.5976 6.26L11.1076 10C11.0742 10.02 11.0376 10.0367 10.9976 10.05C10.9576 10.0633 10.9109 10.0733 10.8576 10.08C10.8042 10.0867 10.7409 10.09 10.6676 10.09ZM18.6841 10.09C18.2107 10.09 17.8174 9.98333 17.5041 9.77C17.1907 9.55667 16.9541 9.27 16.7941 8.91C16.6407 8.54333 16.5641 8.14333 16.5641 7.71C16.5641 7.28333 16.6474 6.89 16.8141 6.53C16.9807 6.17 17.2174 5.88 17.5241 5.66C17.8374 5.44 18.2074 5.33 18.6341 5.33C19.0674 5.33 19.4141 5.42333 19.6741 5.61C19.9407 5.79667 20.1374 6.04667 20.2641 6.36C20.3974 6.67333 20.4774 7.02 20.5041 7.4C20.4774 7.53333 20.4274 7.64667 20.3541 7.74C20.2407 7.74 20.0707 7.74 19.8441 7.74C19.6174 7.74 19.3607 7.74333 19.0741 7.75C18.7874 7.75 18.4941 7.75667 18.1941 7.77C17.8941 7.77667 17.6107 7.78667 17.3441 7.8V7.29H19.4641C19.4641 6.85 19.3841 6.49333 19.2241 6.22C19.0641 5.94667 18.8374 5.81 18.5441 5.81C18.3841 5.81 18.2274 5.86 18.0741 5.96C17.9207 6.05333 17.7941 6.22333 17.6941 6.47C17.5941 6.71 17.5441 7.05333 17.5441 7.5C17.5441 7.82667 17.5841 8.14667 17.6641 8.46C17.7507 8.76667 17.8974 9.02333 18.1041 9.23C18.3174 9.43 18.6174 9.53 19.0041 9.53C19.2241 9.53 19.4407 9.48 19.6541 9.38C19.8674 9.28 20.0574 9.13667 20.2241 8.95C20.2774 8.97667 20.3274 9.02333 20.3741 9.09C20.4274 9.15 20.4574 9.20667 20.4641 9.26C20.2374 9.56 19.9741 9.77333 19.6741 9.9C19.3807 10.0267 19.0507 10.09 18.6841 10.09ZM24.3304 10.09C24.2571 10.0567 24.1971 9.99667 24.1504 9.91C24.1104 9.82333 24.0904 9.68667 24.0904 9.5C24.0904 9.44 24.0937 9.37 24.1004 9.29C24.1071 9.20333 24.1204 9.12667 24.1404 9.06H24.1604C24.1404 9.16667 24.0937 9.28333 24.0204 9.41C23.9537 9.53 23.8637 9.63667 23.7504 9.73C23.6371 9.83 23.4937 9.91333 23.3204 9.98C23.1471 10.04 22.9371 10.07 22.6904 10.07C22.2704 10.07 21.9504 9.97667 21.7304 9.79C21.5104 9.59667 21.4004 9.33667 21.4004 9.01C21.4004 8.75 21.4604 8.53 21.5804 8.35C21.7071 8.16333 21.8671 8.01 22.0604 7.89C22.2604 7.76333 22.4737 7.66333 22.7004 7.59C22.9337 7.51667 23.1604 7.46 23.3804 7.42C23.6004 7.38 23.7937 7.34667 23.9604 7.32C23.9604 7.04667 23.9537 6.83333 23.9404 6.68C23.9337 6.52667 23.9137 6.40667 23.8804 6.32C23.8537 6.22667 23.8104 6.14667 23.7504 6.08C23.6704 5.98 23.5771 5.90667 23.4704 5.86C23.3704 5.80667 23.2571 5.78 23.1304 5.78C22.9104 5.78 22.7371 5.85 22.6104 5.99C22.4837 6.12333 22.3937 6.28 22.3404 6.46C22.2871 6.64 22.2571 6.8 22.2504 6.94C22.1771 6.94 22.0837 6.93667 21.9704 6.93C21.8637 6.91667 21.7837 6.89667 21.7304 6.87C21.7437 6.70333 21.7471 6.51667 21.7404 6.31C21.7337 6.10333 21.7137 5.92667 21.6804 5.78C21.9537 5.64 22.2404 5.53 22.5404 5.45C22.8471 5.37 23.1271 5.33 23.3804 5.33C23.6271 5.33 23.8371 5.36667 24.0104 5.44C24.1904 5.50667 24.3337 5.59667 24.4404 5.71C24.6137 5.87667 24.7271 6.09667 24.7804 6.37C24.8337 6.63667 24.8604 6.99333 24.8604 7.44V8.54C24.8604 8.72667 24.8737 8.87667 24.9004 8.99C24.9337 9.09667 24.9937 9.17667 25.0804 9.23C25.1671 9.27667 25.3004 9.30667 25.4804 9.32C25.4804 9.38667 25.4771 9.46333 25.4704 9.55C25.4637 9.63 25.4471 9.70667 25.4204 9.78C25.2537 9.78667 25.0671 9.82 24.8604 9.88C24.6604 9.93333 24.4837 10.0033 24.3304 10.09ZM22.9704 9.52C23.1171 9.52 23.2671 9.47333 23.4204 9.38C23.5737 9.28 23.7004 9.12667 23.8004 8.92C23.9071 8.71333 23.9604 8.44333 23.9604 8.11V7.73C23.7937 7.75 23.6171 7.78 23.4304 7.82C23.2437 7.85333 23.0704 7.90667 22.9104 7.98C22.7504 8.05333 22.6204 8.15667 22.5204 8.29C22.4204 8.41667 22.3704 8.59 22.3704 8.81C22.3704 9.05667 22.4304 9.23667 22.5504 9.35C22.6704 9.46333 22.8104 9.52 22.9704 9.52ZM27.8144 10.09C27.421 10.09 27.1277 9.99 26.9344 9.79C26.7477 9.58333 26.6544 9.25333 26.6544 8.8V6.09C26.5544 6.05667 26.451 6.03 26.3444 6.01C26.2377 5.98333 26.101 5.96667 25.9344 5.96C25.9344 5.87333 25.941 5.8 25.9544 5.74C25.9677 5.67333 25.991 5.6 26.0244 5.52H26.6544V4.2C26.7877 4.16667 26.9177 4.11333 27.0444 4.04C27.1777 3.96667 27.2944 3.88667 27.3944 3.8C27.461 3.82667 27.5044 3.86667 27.5244 3.92C27.5444 3.97333 27.5544 4.10667 27.5544 4.32V5.52H28.8544C28.8544 5.58667 28.8477 5.66 28.8344 5.74C28.821 5.81333 28.7977 5.88667 28.7644 5.96C28.5244 5.96667 28.3044 5.98333 28.1044 6.01C27.9044 6.03 27.721 6.05667 27.5544 6.09V8.59C27.5544 8.81 27.5777 8.99333 27.6244 9.14C27.671 9.28 27.7377 9.38333 27.8244 9.45C27.911 9.51667 28.0144 9.55 28.1344 9.55C28.2744 9.55 28.3944 9.53 28.4944 9.49C28.601 9.45 28.701 9.39 28.7944 9.31C28.881 9.41 28.931 9.52 28.9444 9.64C28.8377 9.76667 28.6744 9.87333 28.4544 9.96C28.241 10.0467 28.0277 10.09 27.8144 10.09ZM31.6626 10.09C31.1892 10.09 30.7959 9.98333 30.4826 9.77C30.1692 9.55667 29.9326 9.27 29.7726 8.91C29.6192 8.54333 29.5426 8.14333 29.5426 7.71C29.5426 7.28333 29.6259 6.89 29.7926 6.53C29.9592 6.17 30.1959 5.88 30.5026 5.66C30.8159 5.44 31.1859 5.33 31.6126 5.33C32.0459 5.33 32.3926 5.42333 32.6526 5.61C32.9192 5.79667 33.1159 6.04667 33.2426 6.36C33.3759 6.67333 33.4559 7.02 33.4826 7.4C33.4559 7.53333 33.4059 7.64667 33.3326 7.74C33.2192 7.74 33.0492 7.74 32.8226 7.74C32.5959 7.74 32.3392 7.74333 32.0526 7.75C31.7659 7.75 31.4726 7.75667 31.1726 7.77C30.8726 7.77667 30.5892 7.78667 30.3226 7.8V7.29H32.4426C32.4426 6.85 32.3626 6.49333 32.2026 6.22C32.0426 5.94667 31.8159 5.81 31.5226 5.81C31.3626 5.81 31.2059 5.86 31.0526 5.96C30.8992 6.05333 30.7726 6.22333 30.6726 6.47C30.5726 6.71 30.5226 7.05333 30.5226 7.5C30.5226 7.82667 30.5626 8.14667 30.6426 8.46C30.7292 8.76667 30.8759 9.02333 31.0826 9.23C31.2959 9.43 31.5959 9.53 31.9826 9.53C32.2026 9.53 32.4192 9.48 32.6326 9.38C32.8459 9.28 33.0359 9.13667 33.2026 8.95C33.2559 8.97667 33.3059 9.02333 33.3526 9.09C33.4059 9.15 33.4359 9.20667 33.4426 9.26C33.2159 9.56 32.9526 9.77333 32.6526 9.9C32.3592 10.0267 32.0292 10.09 31.6626 10.09ZM35.8889 8.53C35.8889 8.81667 35.9189 9.03667 35.9789 9.19C36.0389 9.33667 36.1356 9.44 36.2689 9.5C36.4022 9.55333 36.5722 9.58667 36.7789 9.6C36.7989 9.65333 36.8122 9.71667 36.8189 9.79C36.8256 9.85667 36.8289 9.93667 36.8289 10.03C36.7289 10.0233 36.6089 10.0167 36.4689 10.01C36.3356 10.01 36.1922 10.0067 36.0389 10C35.8856 10 35.7289 10 35.5689 10C35.3356 10 35.0889 10 34.8289 10C34.5756 10.0067 34.3822 10.0167 34.2489 10.03C34.2489 9.93667 34.2522 9.85667 34.2589 9.79C34.2656 9.71667 34.2789 9.65333 34.2989 9.6C34.4789 9.58667 34.6189 9.55667 34.7189 9.51C34.8189 9.45667 34.8889 9.37 34.9289 9.25C34.9689 9.12333 34.9889 8.95 34.9889 8.73V7.73H35.8889V8.53ZM35.8889 7.07V7.86H34.9889V6.75L35.8889 5.77C35.8889 5.99667 35.8689 6.20333 35.8289 6.39C35.7889 6.57 35.7522 6.75 35.7189 6.93L35.8889 7.07ZM35.6689 6.99C35.7422 6.80333 35.7989 6.65 35.8389 6.53C35.8789 6.41 35.9222 6.31 35.9689 6.23C36.1156 5.99667 36.2889 5.80333 36.4889 5.65C36.6889 5.49667 36.9189 5.42 37.1789 5.42C37.4322 5.42 37.6622 5.5 37.8689 5.66C37.8556 5.76667 37.8422 5.89 37.8289 6.03C37.8156 6.17 37.8056 6.31 37.7989 6.45C37.7989 6.59 37.7989 6.72 37.7989 6.84C37.7389 6.86 37.6556 6.88 37.5489 6.9C37.4489 6.92 37.3422 6.93 37.2289 6.93C37.2156 6.61 37.1622 6.4 37.0689 6.3C36.9822 6.2 36.8722 6.15 36.7389 6.15C36.6256 6.15 36.5022 6.21667 36.3689 6.35C36.2356 6.47667 36.1222 6.64667 36.0289 6.86C35.9356 7.07333 35.8889 7.31 35.8889 7.57L35.6689 6.99ZM34.9889 7.86V6.75C34.9889 6.59 34.9722 6.46 34.9389 6.36C34.9056 6.26 34.8356 6.18333 34.7289 6.13C34.6222 6.07667 34.4589 6.04667 34.2389 6.04C34.2389 5.96667 34.2456 5.9 34.2589 5.84C34.2722 5.78 34.2956 5.72333 34.3289 5.67C34.5356 5.65667 34.7722 5.61667 35.0389 5.55C35.3056 5.48333 35.5156 5.41 35.6689 5.33C35.7289 5.35 35.7789 5.39333 35.8189 5.46C35.8656 5.52 35.8889 5.62333 35.8889 5.77L34.9889 7.86Z" fill="black"/>
</svg>
