<svg width="170" height="70" viewBox="0 0 170 70" fill="none" xmlns="http://www.w3.org/2000/svg">
<path d="M163.333 23.3333V46.6667M136.667 23.3333V46.6667L156.667 35L136.667 23.3333Z" stroke="black" stroke-width="3" stroke-linecap="round" stroke-linejoin="round"/>
<path d="M6.66666 23.3333V46.6667M33.3333 23.3333V46.6667L13.3333 35L33.3333 23.3333Z" stroke="black" stroke-width="3" stroke-linecap="round" stroke-linejoin="round"/>
<path d="M85 55.4167C96.2758 55.4167 105.417 46.2758 105.417 35C105.417 23.7242 96.2758 14.5833 85 14.5833C73.7242 14.5833 64.5833 23.7242 64.5833 35C64.5833 46.2758 73.7242 55.4167 85 55.4167Z" stroke="black" stroke-width="3" stroke-linecap="round" stroke-linejoin="round"/>
<path d="M80 23H76.6667C75.7462 23 75 23.7462 75 24.6667V44.6667C75 45.5871 75.7462 46.3333 76.6667 46.3333H80C80.9205 46.3333 81.6667 45.5871 81.6667 44.6667V24.6667C81.6667 23.7462 80.9205 23 80 23Z" stroke="black" stroke-width="3" stroke-linecap="round" stroke-linejoin="round"/>
<path d="M93.3333 23H90C89.0795 23 88.3333 23.7462 88.3333 24.6667V44.6667C88.3333 45.5871 89.0795 46.3333 90 46.3333H93.3333C94.2538 46.3333 95 45.5871 95 44.6667V24.6667C95 23.7462 94.2538 23 93.3333 23Z" stroke="black" stroke-width="3" stroke-linecap="round" stroke-linejoin="round"/>
</svg>
